<svg xmlns="http://www.w3.org/2000/svg">
	<symbol id="i-tg" viewBox="0 0 32 32">
		<path
			d="M16.0003 0.166992C7.26033 0.166992 0.166992 7.26033 0.166992 16.0003C0.166992 24.7403 7.26033 31.8337 16.0003 31.8337C24.7403 31.8337 31.8337 24.7403 31.8337 16.0003C31.8337 7.26033 24.7403 0.166992 16.0003 0.166992ZM23.347 10.9337C23.1095 13.4353 22.0803 19.5153 21.5578 22.3178C21.3362 23.5053 20.8928 23.9012 20.4812 23.9487C19.5628 24.0278 18.8662 23.347 17.9795 22.7612C16.5862 21.8428 15.7945 21.2728 14.4487 20.3862C12.8812 19.357 13.8945 18.787 14.797 17.8687C15.0345 17.6312 19.0878 13.942 19.167 13.6095C19.178 13.5591 19.1765 13.5068 19.1627 13.4572C19.1489 13.4075 19.1232 13.362 19.0878 13.3245C18.9928 13.2453 18.8662 13.277 18.7553 13.2928C18.6128 13.3245 16.3962 14.797 12.0737 17.7103C11.4403 18.1378 10.8703 18.3595 10.3637 18.3437C9.79366 18.3278 8.71699 18.027 7.90949 17.7578C6.91199 17.4412 6.13616 17.267 6.19949 16.7128C6.23116 16.4278 6.62699 16.1428 7.37116 15.842C11.9945 13.8312 15.0662 12.5012 16.602 11.8678C21.0037 10.0312 21.9062 9.71449 22.5078 9.71449C22.6345 9.71449 22.9353 9.74616 23.1253 9.90449C23.2837 10.0312 23.3312 10.2053 23.347 10.332C23.3312 10.427 23.3628 10.712 23.347 10.9337V10.9337Z" />
	</symbol>
	<symbol id="i-burger" viewBox="0 0 17 15">
		<path
			d="M14.9219 11.995C15.2311 11.9952 15.5285 12.1165 15.7523 12.3337C15.9761 12.551 16.1092 12.8476 16.1241 13.1621C16.1389 13.4766 16.0344 13.7848 15.8321 14.0229C15.6298 14.2611 15.3453 14.4109 15.0375 14.4412L14.9219 14.447H2.07746C1.76821 14.4468 1.47088 14.3255 1.24708 14.1083C1.02327 13.891 0.89014 13.5944 0.875278 13.2799C0.860417 12.9654 0.964962 12.6572 1.16725 12.4191C1.36954 12.1809 1.65406 12.0311 1.96186 12.0008L2.07746 11.995H14.9219ZM14.9219 6.27389C15.2413 6.27389 15.5476 6.40305 15.7734 6.63296C15.9992 6.86288 16.1261 7.1747 16.1261 7.49985C16.1261 7.825 15.9992 8.13682 15.7734 8.36674C15.5476 8.59665 15.2413 8.72581 14.9219 8.72581H2.07746C1.75809 8.72581 1.45181 8.59665 1.22598 8.36674C1.00016 8.13682 0.873291 7.825 0.873291 7.49985C0.873291 7.1747 1.00016 6.86288 1.22598 6.63296C1.45181 6.40305 1.75809 6.27389 2.07746 6.27389H14.9219ZM14.9219 0.552734C15.2413 0.552734 15.5476 0.681898 15.7734 0.91181C15.9992 1.14172 16.1261 1.45355 16.1261 1.7787C16.1261 2.10384 15.9992 2.41567 15.7734 2.64558C15.5476 2.87549 15.2413 3.00466 14.9219 3.00466H2.07746C1.75809 3.00466 1.45181 2.87549 1.22598 2.64558C1.00016 2.41567 0.873291 2.10384 0.873291 1.7787C0.873291 1.45355 1.00016 1.14172 1.22598 0.91181C1.45181 0.681898 1.75809 0.552734 2.07746 0.552734H14.9219Z" />
	</symbol>
	<symbol id="i-left" viewBox="0 0 13 22">
		<path
			d="M3.61532 10.8996L12.8077 1.70718L11.3935 0.292969L0.786892 10.8996L11.3935 21.5062L12.8077 20.092L3.61532 10.8996Z" />
	</symbol>
	<symbol id="i-right" viewBox="0 0 13 22">
		<path
			d="M9.38468 10.8996L0.192293 1.70718L1.60651 0.292969L12.2131 10.8996L1.60651 21.5062L0.192293 20.092L9.38468 10.8996Z" />
	</symbol>
</svg>