<svg viewBox="0 0 100 100" xmlns="http://www.w3.org/2000/svg">
	<path d="M10.5264 29.6149H15.8265V70.3852H10.5264V29.6149Z" fill="#CB19A4" />
	<path d="M10.5264 29.6149H15.8265V70.3852H10.5264V29.6149Z" fill="url(#gradient-1)" fill-opacity="0.45" />
	<path
		d="M38.8314 68.6379C37.6471 69.5116 36.5793 70.0746 35.628 70.327C34.6961 70.5794 33.8322 70.7055 33.0362 70.7055C31.8519 70.7055 30.8035 70.5502 29.8911 70.2396C28.998 69.9096 28.2408 69.4824 27.6196 68.9582C27.0177 68.4146 26.5615 67.8031 26.2508 67.1236C25.9402 66.4441 25.7849 65.7549 25.7849 65.056C25.7849 64.3182 25.9208 63.6387 26.1926 63.0174C26.4838 62.3962 26.8721 61.8235 27.3575 61.2993C27.8622 60.7557 28.4447 60.2703 29.1048 59.8432C29.7649 59.3967 30.4832 58.9889 31.2598 58.6201C30.6385 57.7464 30.1046 56.9504 29.6581 56.2321C29.231 55.4943 29.0174 54.7178 29.0174 53.9024C29.0174 53.417 29.0951 52.9219 29.2504 52.4172C29.4251 51.893 29.6872 51.427 30.0367 51.0193C30.4055 50.6116 30.8618 50.2816 31.4054 50.0292C31.9684 49.7574 32.6382 49.6215 33.4148 49.6215C34.0166 49.6215 34.5796 49.7186 35.1038 49.9127C35.628 50.1068 36.0842 50.3884 36.4725 50.7572C36.8608 51.1261 37.1715 51.5726 37.4044 52.0968C37.6374 52.6016 37.7539 53.1743 37.7539 53.815C37.7539 54.6304 37.4724 55.4361 36.9094 56.2321C36.3658 57.0087 35.4145 57.7173 34.0554 58.358L39.8506 65.9878C40.4331 65.2113 40.8796 64.3279 41.1902 63.3378C41.5009 62.3282 41.6853 61.0469 41.7436 59.4937H44.015C43.918 60.5421 43.7141 61.4837 43.4035 62.3185C43.1123 63.1533 42.7822 63.8911 42.4133 64.5318C42.0639 65.1724 41.7144 65.7063 41.365 66.1334C41.0349 66.5412 40.7825 66.8421 40.6078 67.0362L43.2579 70.3852H40.171L38.8314 68.6379ZM33.5604 50.9028C33.1333 50.9028 32.7644 50.9805 32.4538 51.1358C32.1625 51.2717 31.9199 51.4562 31.7257 51.6891C31.5316 51.9221 31.386 52.1842 31.2889 52.4754C31.2112 52.7666 31.1724 53.0578 31.1724 53.3491C31.1724 54.0286 31.386 54.6984 31.8131 55.3584C32.2402 55.9991 32.7644 56.7078 33.3856 57.4843C33.638 57.3484 33.9098 57.164 34.201 56.931C34.5117 56.6786 34.7932 56.3971 35.0456 56.0865C35.298 55.7564 35.5018 55.3876 35.6571 54.9799C35.8319 54.5722 35.9192 54.1256 35.9192 53.6403C35.9192 53.3879 35.8804 53.1064 35.8027 52.7957C35.7251 52.4657 35.5989 52.1648 35.4242 51.893C35.2494 51.6212 35.0067 51.3882 34.6961 51.1941C34.4049 50.9999 34.0263 50.9028 33.5604 50.9028ZM31.9878 59.6393C30.5706 60.3771 29.5901 61.1051 29.0465 61.8235C28.5223 62.5418 28.2602 63.3378 28.2602 64.2114C28.2602 65.0074 28.4253 65.716 28.7553 66.3373C29.0854 66.9392 29.5125 67.4536 30.0367 67.8807C30.5803 68.3079 31.1724 68.6379 31.8131 68.8709C32.4732 69.0844 33.1235 69.1912 33.7642 69.1912C33.9195 69.1912 34.1525 69.1815 34.4631 69.1621C34.7932 69.1233 35.1621 69.0553 35.5698 68.9582C35.9775 68.8612 36.3949 68.7156 36.822 68.5214C37.2685 68.3273 37.6956 68.0555 38.1033 67.706L31.9878 59.6393Z"
		fill="#CB19A4" />
	<path
		d="M38.8314 68.6379C37.6471 69.5116 36.5793 70.0746 35.628 70.327C34.6961 70.5794 33.8322 70.7055 33.0362 70.7055C31.8519 70.7055 30.8035 70.5502 29.8911 70.2396C28.998 69.9096 28.2408 69.4824 27.6196 68.9582C27.0177 68.4146 26.5615 67.8031 26.2508 67.1236C25.9402 66.4441 25.7849 65.7549 25.7849 65.056C25.7849 64.3182 25.9208 63.6387 26.1926 63.0174C26.4838 62.3962 26.8721 61.8235 27.3575 61.2993C27.8622 60.7557 28.4447 60.2703 29.1048 59.8432C29.7649 59.3967 30.4832 58.9889 31.2598 58.6201C30.6385 57.7464 30.1046 56.9504 29.6581 56.2321C29.231 55.4943 29.0174 54.7178 29.0174 53.9024C29.0174 53.417 29.0951 52.9219 29.2504 52.4172C29.4251 51.893 29.6872 51.427 30.0367 51.0193C30.4055 50.6116 30.8618 50.2816 31.4054 50.0292C31.9684 49.7574 32.6382 49.6215 33.4148 49.6215C34.0166 49.6215 34.5796 49.7186 35.1038 49.9127C35.628 50.1068 36.0842 50.3884 36.4725 50.7572C36.8608 51.1261 37.1715 51.5726 37.4044 52.0968C37.6374 52.6016 37.7539 53.1743 37.7539 53.815C37.7539 54.6304 37.4724 55.4361 36.9094 56.2321C36.3658 57.0087 35.4145 57.7173 34.0554 58.358L39.8506 65.9878C40.4331 65.2113 40.8796 64.3279 41.1902 63.3378C41.5009 62.3282 41.6853 61.0469 41.7436 59.4937H44.015C43.918 60.5421 43.7141 61.4837 43.4035 62.3185C43.1123 63.1533 42.7822 63.8911 42.4133 64.5318C42.0639 65.1724 41.7144 65.7063 41.365 66.1334C41.0349 66.5412 40.7825 66.8421 40.6078 67.0362L43.2579 70.3852H40.171L38.8314 68.6379ZM33.5604 50.9028C33.1333 50.9028 32.7644 50.9805 32.4538 51.1358C32.1625 51.2717 31.9199 51.4562 31.7257 51.6891C31.5316 51.9221 31.386 52.1842 31.2889 52.4754C31.2112 52.7666 31.1724 53.0578 31.1724 53.3491C31.1724 54.0286 31.386 54.6984 31.8131 55.3584C32.2402 55.9991 32.7644 56.7078 33.3856 57.4843C33.638 57.3484 33.9098 57.164 34.201 56.931C34.5117 56.6786 34.7932 56.3971 35.0456 56.0865C35.298 55.7564 35.5018 55.3876 35.6571 54.9799C35.8319 54.5722 35.9192 54.1256 35.9192 53.6403C35.9192 53.3879 35.8804 53.1064 35.8027 52.7957C35.7251 52.4657 35.5989 52.1648 35.4242 51.893C35.2494 51.6212 35.0067 51.3882 34.6961 51.1941C34.4049 50.9999 34.0263 50.9028 33.5604 50.9028ZM31.9878 59.6393C30.5706 60.3771 29.5901 61.1051 29.0465 61.8235C28.5223 62.5418 28.2602 63.3378 28.2602 64.2114C28.2602 65.0074 28.4253 65.716 28.7553 66.3373C29.0854 66.9392 29.5125 67.4536 30.0367 67.8807C30.5803 68.3079 31.1724 68.6379 31.8131 68.8709C32.4732 69.0844 33.1235 69.1912 33.7642 69.1912C33.9195 69.1912 34.1525 69.1815 34.4631 69.1621C34.7932 69.1233 35.1621 69.0553 35.5698 68.9582C35.9775 68.8612 36.3949 68.7156 36.822 68.5214C37.2685 68.3273 37.6956 68.0555 38.1033 67.706L31.9878 59.6393Z"
		fill="url(#gradient-1)" fill-opacity="0.45" />
	<path
		d="M48.6268 50.0001C48.6268 47.7868 49.0345 45.4377 49.8499 42.9526C50.7041 40.4676 52.0243 38.1961 53.8104 36.1382C55.5966 34.0414 57.868 32.3135 60.6249 30.9545C63.3817 29.5955 66.6822 28.916 70.5262 28.916C74.4091 28.916 77.7678 29.6149 80.6023 31.0128C83.4757 32.3718 85.8442 34.0997 87.708 36.1964C89.5718 38.2932 90.9502 40.5841 91.8433 43.0691C92.7363 45.5153 93.1829 47.8257 93.1829 50.0001C93.1829 51.4367 92.9693 52.9511 92.5422 54.543C92.1539 56.135 91.5521 57.727 90.7366 59.319C89.9601 60.8721 88.9505 62.3671 87.708 63.8037C86.4655 65.2016 84.99 66.4441 83.2815 67.5313C81.6119 68.6185 79.7093 69.4921 77.5737 70.1522C75.4769 70.7735 73.1278 71.0841 70.5262 71.0841C66.6822 71.0841 63.3817 70.4046 60.6249 69.0456C57.868 67.6478 55.5966 65.9005 53.8104 63.8037C52.0243 61.707 50.7041 59.4355 49.8499 56.9893C49.0345 54.5042 48.6268 52.1745 48.6268 50.0001ZM54.3346 50.0001C54.3346 52.7181 54.7423 55.2226 55.5577 57.5135C56.412 59.7655 57.5574 61.707 58.9941 63.3378C60.4696 64.9686 62.1975 66.2499 64.1777 67.1818C66.158 68.0749 68.313 68.5214 70.6427 68.5214C72.9336 68.5214 75.0886 68.0749 77.1077 67.1818C79.1657 66.2499 80.9518 64.9686 82.4661 63.3378C84.0193 61.707 85.2424 59.7655 86.1354 57.5135C87.0285 55.2226 87.475 52.7181 87.475 50.0001C87.475 47.2821 87.0285 44.797 86.1354 42.5449C85.2424 40.254 84.0193 38.2932 82.4661 36.6624C80.9518 35.0316 79.1657 33.7696 77.1077 32.8766C75.0886 31.9447 72.9336 31.4787 70.6427 31.4787C68.313 31.4787 66.158 31.9447 64.1777 32.8766C62.1975 33.7696 60.4696 35.0316 58.9941 36.6624C57.5574 38.2932 56.412 40.254 55.5577 42.5449C54.7423 44.797 54.3346 47.2821 54.3346 50.0001Z"
		fill="#CB19A4" />
	<path
		d="M48.6268 50.0001C48.6268 47.7868 49.0345 45.4377 49.8499 42.9526C50.7041 40.4676 52.0243 38.1961 53.8104 36.1382C55.5966 34.0414 57.868 32.3135 60.6249 30.9545C63.3817 29.5955 66.6822 28.916 70.5262 28.916C74.4091 28.916 77.7678 29.6149 80.6023 31.0128C83.4757 32.3718 85.8442 34.0997 87.708 36.1964C89.5718 38.2932 90.9502 40.5841 91.8433 43.0691C92.7363 45.5153 93.1829 47.8257 93.1829 50.0001C93.1829 51.4367 92.9693 52.9511 92.5422 54.543C92.1539 56.135 91.5521 57.727 90.7366 59.319C89.9601 60.8721 88.9505 62.3671 87.708 63.8037C86.4655 65.2016 84.99 66.4441 83.2815 67.5313C81.6119 68.6185 79.7093 69.4921 77.5737 70.1522C75.4769 70.7735 73.1278 71.0841 70.5262 71.0841C66.6822 71.0841 63.3817 70.4046 60.6249 69.0456C57.868 67.6478 55.5966 65.9005 53.8104 63.8037C52.0243 61.707 50.7041 59.4355 49.8499 56.9893C49.0345 54.5042 48.6268 52.1745 48.6268 50.0001ZM54.3346 50.0001C54.3346 52.7181 54.7423 55.2226 55.5577 57.5135C56.412 59.7655 57.5574 61.707 58.9941 63.3378C60.4696 64.9686 62.1975 66.2499 64.1777 67.1818C66.158 68.0749 68.313 68.5214 70.6427 68.5214C72.9336 68.5214 75.0886 68.0749 77.1077 67.1818C79.1657 66.2499 80.9518 64.9686 82.4661 63.3378C84.0193 61.707 85.2424 59.7655 86.1354 57.5135C87.0285 55.2226 87.475 52.7181 87.475 50.0001C87.475 47.2821 87.0285 44.797 86.1354 42.5449C85.2424 40.254 84.0193 38.2932 82.4661 36.6624C80.9518 35.0316 79.1657 33.7696 77.1077 32.8766C75.0886 31.9447 72.9336 31.4787 70.6427 31.4787C68.313 31.4787 66.158 31.9447 64.1777 32.8766C62.1975 33.7696 60.4696 35.0316 58.9941 36.6624C57.5574 38.2932 56.412 40.254 55.5577 42.5449C54.7423 44.797 54.3346 47.2821 54.3346 50.0001Z"
		fill="url(#gradient-2)" fill-opacity="0.45" />
	<linearGradient id="gradient-1" x1="8.0098" y1="38.6803" x2="74.8458" y2="44.4637" gradientUnits="userSpaceOnUse">
		<stop stop-color="white" stop-opacity="0.58" />
		<stop offset="0.333333" stop-color="#C52232" />
		<stop offset="0.666667" stop-color="white" stop-opacity="0.54" />
		<stop offset="1" stop-color="#C52232" stop-opacity="0.54" />
	</linearGradient>
	<linearGradient id="gradient-2" x1="8.0098" y1="38.6803" x2="74.8458" y2="44.4637" gradientUnits="userSpaceOnUse">
		<stop stop-color="white" stop-opacity="0.58" />
		<stop offset="0.333333" stop-color="#C52232" />
		<stop offset="0.666667" stop-color="white" stop-opacity="0.54" />
		<stop offset="1" stop-color="#C52232" stop-opacity="0.54" />
	</linearGradient>
</svg>